# xmcd
#
# Track frame offsets:
#	150
#	17216
#	35075
#	55600
#	73371
#	95603
#	113753
#	130572
#	146854
#	161110
#	175732
#	193349
#	213096
#	231448
#	249259
#	266024
#
# Disc length: 3906 seconds
#
# Revision: 1
# Processed by: cddbd v1.5.2PL0 Copyright (c) Steve Scherf et al.
# Submitted via: audiograbber 1.83.01
#
DISCID=ee0f4010
DTITLE=Rod Stewart - The Ultimate Collection CD1
DYEAR=1900
DGENRE=Pop2016
TTITLE0=You Put Something Better Inside Me (1995)
TTITLE1=Missed You (1995)
TTITLE2=Farewell (1974)
TTITLE3=Bring It On Home To Me, You Send Me (1974)
TTITLE4=Let Me Be Your Car (1974)
TTITLE5=Mine For Me (1974)
TTITLE6=Sweet Little Rock 'N' Roller (1974)
TTITLE7=Oh No, Not My Baby (1973)
TTITLE8=Pinball Wizard (1972)
TTITLE9=Twistin' The Night Away (1972)
TTITLE10=I'd Rather Go Blind (1972)
TTITLE11=You Wear It Well (1972)
TTITLE12=Angel (1972)
TTITLE13=Lost Paraguayos (1972)
TTITLE14=Tomorrow Is A Long Time (1971)
TTITLE15=That's All Right (1971)
EXTD=
EXTT0=
EXTT1=
EXTT2=
EXTT3=
EXTT4=
EXTT5=
EXTT6=
EXTT7=
EXTT8=
EXTT9=
EXTT10=
EXTT11=
EXTT12=
EXTT13=
EXTT14=
EXTT15=
PLAYORDER=
